# https://github.com/mikedh/trimesh
v 11.38560000 7.04340000 -1.60210000
v 12.98740000 -5.11990000 -1.43220000
v 12.98740000 -5.11990000 -1.43220000
v 9.62100000 -5.12230000 4.33150000
v 9.62100000 -5.12230000 4.33150000
v -4.80050000 -0.31640000 -1.47470000
v -4.80050000 -0.31640000 -1.47470000
v 12.13800000 6.30990000 1.52050000
v -2.49880000 -4.12420000 -1.47440000
v -2.49880000 -4.12420000 -1.47440000
v -2.49880000 -4.12420000 -1.47440000
v 8.85250000 7.67580000 2.79810000
v -3.76190000 -2.83230000 2.84840000
v -3.76190000 -2.83230000 2.84840000
v 4.34460000 -1.78190000 5.51190000
v -4.46230000 -1.64250000 2.83780000
v -4.46230000 -1.64250000 2.83780000
v -4.39190000 -1.97590000 -1.47450000
v -4.39190000 -1.97590000 -1.47450000
v 12.39940000 -5.11970000 2.54580000
v 12.39940000 -5.11970000 2.54580000
v 5.56420000 7.94530000 1.22350000
v 6.23390000 7.78140000 2.40780000
v 8.23710000 7.26720000 -3.62090000
v 8.23710000 7.26720000 -3.62090000
v -2.23970000 -1.18840000 5.10590000
v -2.23970000 -1.18840000 5.10590000
v 4.04460000 1.88330000 5.55290000
v 10.34220000 4.21100000 -3.89090000
v 11.05670000 6.77590000 2.69510000
v 11.05670000 6.77590000 2.69510000
v -4.03680000 1.49300000 3.54570000
v 12.43680000 4.87270000 -1.81950000
v 8.40250000 -5.12160000 4.40340000
v 8.40250000 -5.12160000 4.40340000
v 8.40250000 -5.12160000 4.40340000
v 11.76250000 5.90650000 -2.48980000
v 12.62650000 5.84190000 -0.02450000
v -3.97330000 -1.06860000 3.74060000
v -4.67090000 0.79000000 2.80030000
v -4.67090000 0.79000000 2.80030000
v 1.50510000 2.40850000 5.62060000
v 13.14210000 2.18530000 0.62490000
v -3.49790000 3.14250000 2.85100000
v 5.35970000 -5.11870000 -3.10590000
v 8.68310000 7.67540000 -2.90510000
v 9.53840000 7.03370000 -3.56720000
v 9.53840000 7.03370000 -3.56720000
v -0.74000000 -2.37240000 5.41480000
v -0.74000000 -2.37240000 5.41480000
v -0.74000000 -2.37240000 5.41480000
v 11.21930000 -5.11990000 3.71920000
v 11.21930000 -5.11990000 3.71920000
v 11.39210000 1.93670000 3.53820000
v 9.71300000 -5.12000000 -4.31430000
v 9.71300000 -5.12000000 -4.31430000
v -4.69340000 1.07320000 -1.48340000
v -4.69340000 1.07320000 -1.48340000
v -1.80700000 3.47110000 4.05490000
v -1.51260000 2.00820000 5.26530000
v -1.51260000 2.00820000 5.26530000
v 12.58610000 2.01750000 -2.22360000
v 10.24370000 6.80880000 3.37980000
v 10.24370000 6.80880000 3.37980000
v 7.43180000 7.47680000 3.39190000
v 8.24460000 -5.13880000 -4.39850000
v 8.24460000 -5.13880000 -4.39850000
v 8.24460000 -5.13880000 -4.39850000
v 9.95980000 4.85890000 3.92920000
v 6.56550000 8.13340000 1.33350000
v 11.71110000 2.06450000 -3.28900000
v 12.90790000 4.52960000 -0.66320000
v 5.77600000 8.12780000 0.03540000
v -2.76160000 2.14110000 4.38350000
v 11.88570000 5.23660000 2.65780000
v -1.09170000 -4.71070000 -1.42810000
v -1.09170000 -4.71070000 -1.42810000
v 10.01000000 7.52280000 -2.39010000
v 12.14530000 1.84480000 2.86620000
v 5.98850000 8.02140000 -1.55440000
v 10.00130000 7.52510000 2.41230000
v -2.36990000 0.75740000 5.06510000
v -2.36990000 0.75740000 5.06510000
v 6.71580000 8.16810000 -0.74410000
v -4.03670000 2.63310000 -1.47520000
v -4.03670000 2.63310000 -1.47520000
v -3.51190000 -3.31510000 -1.48120000
v -3.51190000 -3.31510000 -1.48120000
v -3.58690000 0.56690000 4.21170000
v -2.01250000 -4.31080000 2.12110000
v 9.00830000 7.15220000 3.61340000
v 9.00830000 7.15220000 3.61340000
v 10.86840000 7.40840000 -1.14120000
v 12.02450000 6.62970000 -0.68790000
v 11.80230000 6.84050000 0.88460000
v 8.33350000 2.03920000 -4.34030000
v -2.32250000 3.94270000 3.12640000
v -0.91680000 -4.65870000 2.16770000
v 10.98080000 4.60440000 3.50770000
v 13.22080000 -5.11990000 0.13500000
v 13.22080000 -5.11990000 0.13500000
v -4.69510000 -0.14080000 2.96640000
v -4.69510000 -0.14080000 2.96640000
v -3.17830000 -2.53740000 3.87500000
v -2.89260000 3.89450000 -1.46610000
v -2.89260000 3.89450000 -1.46610000
v -2.89260000 3.89450000 -1.46610000
v 7.73140000 7.96080000 -2.35090000
v 11.29390000 4.55500000 -3.31750000
v 7.82510000 7.95090000 2.42870000
v -2.51730000 4.02770000 2.20460000
v 12.23470000 -5.12000000 -2.78660000
v 12.23470000 -5.12000000 -2.78660000
v 13.13480000 0.93960000 -0.79980000
v -1.71320000 -3.54570000 4.06830000
v 12.12770000 6.32760000 -1.51320000
v -4.30110000 2.01950000 2.78550000
v -4.30110000 2.01950000 2.78550000
v 7.00770000 7.61460000 -3.09480000
v 7.00770000 7.61460000 -3.09480000
v 9.66780000 1.42940000 -4.32440000
v 10.91580000 -5.11990000 -3.88470000
v 10.91580000 -5.11990000 -3.88470000
v 11.13980000 7.22970000 1.56050000
v -1.45130000 -4.29060000 3.19530000
v -0.51280000 2.40630000 5.44180000
v -0.51280000 2.40630000 5.44180000
v 12.93360000 -5.11970000 1.56300000
v 12.93360000 -5.11970000 1.56300000
v -3.14550000 2.90340000 3.57930000
v 10.35850000 6.55600000 -3.38780000
v 12.73290000 1.79650000 1.93110000
v 1.55620000 -2.40340000 5.63090000
v 1.55620000 -2.40340000 5.63090000
v 10.94910000 1.06770000 -3.84220000
v 12.47640000 4.34030000 1.95190000
v 5.28280000 -5.11890000 3.17540000
v 10.99800000 6.80920000 -2.72040000
v 10.38770000 1.26590000 4.10450000
v 12.01100000 4.26250000 -2.73550000
v 8.60620000 4.94970000 -4.09070000
v -2.99930000 -3.59580000 2.90480000
v 12.82150000 4.99710000 0.57060000
vn 0.57596037 0.78588850 -0.22505314
vn 0.00158800 -0.99999842 -0.00079300
vn 0.94347343 0.00013100 -0.33144815
vn -0.00085900 -0.99998083 -0.00613200
vn 0.18397492 -0.12646394 0.97476156
vn -0.99723025 -0.07254402 0.01640700
vn -0.22717412 -0.02427601 -0.97355154
vn 0.82324377 0.47326987 0.31350491
vn -0.52949113 -0.84806621 0.02056301
vn -0.27660194 -0.35394393 -0.89342882
vn -0.25400193 -0.66478183 -0.70252982
vn 0.16003804 0.89311624 0.42039411
vn -0.80666113 -0.59046710 0.02542500
vn -0.67911543 -0.50627032 0.53150033
vn 0.14560996 -0.04998099 0.98807876
vn -0.95231450 -0.30450284 0.01936799
vn -0.76082507 -0.31343703 0.56824505
vn -0.89952051 -0.43666225 0.01374501
vn -0.25081698 -0.11330299 -0.96138092
vn 0.00069100 -0.99999965 0.00046400
vn 0.81651302 -0.00012800 0.57732701
vn -0.32471207 0.92736520 0.18589204
vn -0.21655196 0.90140684 0.37492793
vn 0.09752106 0.83717650 -0.53816832
vn -0.17332597 0.24374796 -0.95422484
vn -0.57555791 -0.19048697 0.79526587
vn -0.21884902 0.00111800 0.97575809
vn 0.12954595 0.09301997 0.98720065
vn 0.35952401 0.12586700 -0.92460802
vn 0.52024317 0.76214225 0.38533912
vn 0.68887168 0.35572483 0.63159770
vn -0.74219967 0.25900288 0.61810772
vn 0.88712488 0.19067397 -0.42030094
vn 0.05617901 -0.28994106 0.95539421
vn -0.11986906 -0.68795235 0.71578836
vn -0.01665000 -0.99901103 0.04122800
vn 0.72834623 0.29992210 -0.61608320
vn 0.89372484 0.44857192 -0.00625600
vn -0.71125125 -0.17561606 0.68064724
vn -0.99098664 0.13259195 0.01910099
vn -0.82941729 0.19190907 0.52463118
vn -0.01907101 0.24451710 0.96945742
vn 0.98636181 0.05878199 0.15373697
vn -0.70125822 0.67814322 0.21990607
vn -0.04045399 -0.99764077 -0.05546499
vn 0.13591794 0.88903959 -0.43718980
vn 0.19313902 0.19085002 -0.96243108
vn 0.33583908 0.76135018 -0.55457913
vn -0.45665808 -0.44435608 0.77072114
vn -0.15757402 -0.00031500 0.98750713
vn -0.10848998 -0.64048390 0.76026988
vn -0.00002900 -0.99999631 -0.00271700
vn 0.56157404 -0.00084000 0.82742606
vn 0.58642096 0.05977400 0.80779795
vn 0.00695800 -0.99994473 -0.00788200
vn 0.19882808 -0.00012600 -0.98003438
vn -0.96731904 0.25331801 0.01112900
vn -0.21687205 0.03963201 -0.97539521
vn -0.37183611 0.63363618 0.67841219
vn -0.45921485 0.46263585 0.75834675
vn -0.20423605 0.00166100 0.97892026
vn 0.88190138 0.05174802 -0.46858520
vn 0.37246808 0.78806216 0.49012810
vn 0.46940504 0.24724402 0.84766108
vn -0.11252306 0.74706938 0.65515334
vn -0.25400193 -0.66478183 -0.70252982
vn -0.16487994 -0.08027297 -0.98304163
vn -0.04134099 -0.99436868 -0.09757997
vn 0.29204795 0.15884897 0.94311982
vn -0.08413996 0.98682157 0.13821594
vn 0.63904398 0.04615800 -0.76778397
vn 0.97057033 0.16323106 -0.17705606
vn -0.27585306 0.96119921 0.00108100
vn -0.57125801 0.32741000 0.75264001
vn 0.72022384 0.21667495 0.65903686
vn -0.25400193 -0.66478183 -0.70252982
vn -0.19563893 -0.97952167 -0.04756798
vn 0.33249202 0.89652105 -0.29274402
vn 0.76577179 0.04662799 0.64141983
vn -0.21666809 0.94819240 -0.23234910
vn 0.31593686 0.89924761 0.30255187
vn -0.56986703 0.14843701 0.80821904
vn -0.23402995 0.00474800 0.97221779
vn 0.02922900 0.99882508 -0.03865400
vn -0.83365098 0.55208498 0.01510700
vn -0.23061704 0.14939802 -0.96150716
vn -0.72888971 -0.68418373 0.02474699
vn -0.27050500 -0.26186100 -0.92642100
vn -0.65827868 0.07223396 0.74930063
vn -0.40351810 -0.90966022 0.09844502
vn 0.11423696 0.28878989 0.95055264
vn 0.23124005 0.82948917 0.50840511
vn 0.36927299 0.92877598 -0.03182200
vn 0.69738427 0.71426528 -0.05899402
vn 0.67616609 0.73391610 0.06454901
vn -0.11908499 0.06068300 -0.99102792
vn -0.43887898 0.78991396 0.42827698
vn -0.20276293 -0.97088868 0.12752396
vn 0.49914679 0.14238194 0.85473965
vn -0.00057400 -0.99999983 0.00008400
vn 0.99993301 0.00015000 0.01157400
vn -0.99766740 -0.06304803 0.02616701
vn -0.79028076 0.00400600 0.61273181
vn -0.59740280 -0.45395685 0.66108478
vn -0.57321392 0.81930289 -0.01298400
vn -0.37755513 0.80260928 -0.46181216
vn -0.26751406 0.29719406 -0.91657619
vn 0.08874902 0.98222323 -0.16541204
vn 0.57902087 0.16519496 -0.79840182
vn 0.09446404 0.97982042 0.17614907
vn -0.50892576 0.85534759 0.09682495
vn -0.00023100 -0.99999996 0.00016100
vn 0.77107875 0.00005500 -0.63673979
vn 0.98335396 0.03108800 -0.17902099
vn -0.33777812 -0.68284525 0.64778724
vn 0.82652683 0.47390990 -0.30374794
vn -0.90605922 0.42273410 0.01877700
vn -0.76204947 0.39555025 0.51266032
vn -0.28058389 0.35657586 -0.89113766
vn -0.11454297 0.89081675 -0.43968788
vn 0.19347498 0.03800300 -0.98036891
vn -0.00001700 -1.00000000 -0.00002000
vn 0.48460503 0.00018600 -0.87473306
vn 0.52822067 0.82578748 0.19763088
vn -0.26395893 -0.89383676 0.36246590
vn -0.22377601 0.56784502 0.79213403
vn -0.11904198 0.00091900 0.99288880
vn 0.00017000 -0.99999998 0.00013900
vn 0.94463856 0.00302300 0.32809885
vn -0.58455999 0.52800499 0.61603599
vn 0.50374296 0.31403398 -0.80475194
vn 0.89947472 0.03856299 0.43526787
vn 0.00558400 -0.08435600 0.99642003
vn -0.08414401 -0.57834804 0.81143905
vn 0.45663278 0.03733398 -0.88887157
vn 0.89856757 0.14426593 0.41444380
vn -0.07548800 -0.98998004 0.11933600
vn 0.57763001 0.62466801 -0.52548401
vn 0.34055296 0.03770800 0.93946889
vn 0.76655721 0.13725204 -0.62733717
vn 0.00362000 0.14036097 -0.99009378
vn -0.57876877 -0.76193370 0.29066088
vn 0.96388085 0.20652497 0.16816997
f 16//16 6//6 18//18
f 66//66 76//76 11//11
f 40//40 57//57 6//6
f 7//7 67//67 19//19
f 58//58 67//67 7//7
f 96//96 67//67 58//58
f 125//125 137//137 36//36
f 102//102 6//6 16//16
f 67//67 10//10 88//88
f 67//67 88//88 19//19
f 28//28 69//69 91//91
f 5//5 15//15 133//133
f 54//54 139//139 53//53
f 77//77 90//90 9//9
f 87//87 9//9 142//142
f 57//57 117//117 85//85
f 40//40 6//6 102//102
f 67//67 121//121 56//56
f 98//98 77//77 137//137
f 87//87 13//13 18//18
f 21//21 79//79 53//53
f 93//93 110//110 81//81
f 95//95 38//38 94//94
f 80//80 73//73 84//84
f 93//93 108//108 110//110
f 34//34 5//5 133//133
f 4//4 36//36 52//52
f 20//20 52//52 36//36
f 20//20 36//36 128//128
f 130//130 60//60 59//59
f 125//125 98//98 137//137
f 5//5 53//53 139//139
f 132//132 21//21 129//129
f 127//127 50//50 133//133
f 98//98 90//90 77//77
f 90//90 98//98 125//125
f 45//45 137//137 77//77
f 45//45 77//77 68//68
f 141//141 96//96 86//86
f 58//58 86//86 96//96
f 25//25 86//86 107//107
f 123//123 71//71 113//113
f 67//67 96//96 121//121
f 81//81 124//124 93//93
f 73//73 70//70 84//84
f 1//1 138//138 78//78
f 141//141 25//25 47//47
f 108//108 84//84 110//110
f 110//110 84//84 70//70
f 133//133 28//28 42//42
f 15//15 28//28 133//133
f 69//69 64//64 91//91
f 65//65 42//42 91//91
f 122//122 2//2 55//55
f 128//128 2//2 100//100
f 36//36 2//2 128//128
f 2//2 68//68 55//55
f 23//23 110//110 70//70
f 39//39 89//89 103//103
f 32//32 89//89 74//74
f 139//139 15//15 5//5
f 79//79 54//54 53//53
f 50//50 61//61 27//27
f 127//127 133//133 42//42
f 65//65 126//126 42//42
f 35//35 134//134 51//51
f 104//104 14//14 142//142
f 90//90 142//142 9//9
f 141//141 86//86 25//25
f 130//130 32//32 74//74
f 111//111 73//73 105//105
f 112//112 2//2 122//122
f 71//71 62//62 113//113
f 121//121 123//123 56//56
f 121//121 141//141 29//29
f 13//13 16//16 18//18
f 39//39 17//17 104//104
f 21//21 132//132 79//79
f 136//136 8//8 75//75
f 1//1 93//93 94//94
f 93//93 95//95 94//94
f 124//124 95//95 93//93
f 93//93 78//78 108//108
f 46//46 108//108 78//78
f 28//28 91//91 42//42
f 2//2 45//45 68//68
f 23//23 22//22 97//97
f 60//60 130//130 74//74
f 110//110 12//12 81//81
f 15//15 139//139 28//28
f 139//139 69//69 28//28
f 101//101 43//43 129//129
f 49//49 26//26 104//104
f 61//61 50//50 127//127
f 35//35 51//51 115//115
f 13//13 87//87 142//142
f 57//57 40//40 117//117
f 85//85 44//44 105//105
f 140//140 62//62 71//71
f 138//138 131//131 48//48
f 141//141 121//121 96//96
f 89//89 32//32 103//103
f 82//82 89//89 26//26
f 17//17 14//14 104//104
f 114//114 101//101 3//3
f 43//43 114//114 72//72
f 33//33 72//72 62//62
f 63//63 30//30 81//81
f 8//8 136//136 143//143
f 8//8 31//31 75//75
f 94//94 116//116 1//1
f 116//116 138//138 1//1
f 78//78 48//48 46//46
f 108//108 46//46 120//120
f 24//24 120//120 46//46
f 106//106 80//80 120//120
f 70//70 73//73 22//22
f 97//97 59//59 65//65
f 26//26 89//89 39//39
f 110//110 65//65 12//12
f 12//12 65//65 92//92
f 129//129 43//43 132//132
f 136//136 43//43 143//143
f 43//43 136//136 132//132
f 39//39 104//104 26//26
f 115//115 125//125 35//35
f 60//60 126//126 59//59
f 25//25 107//107 119//119
f 105//105 44//44 111//111
f 111//111 22//22 73//73
f 62//62 3//3 113//113
f 29//29 135//135 121//121
f 123//123 135//135 71//71
f 32//32 41//41 103//103
f 103//103 17//17 39//39
f 90//90 125//125 142//142
f 115//115 142//142 125//125
f 104//104 142//142 115//115
f 114//114 43//43 101//101
f 75//75 54//54 79//79
f 62//62 114//114 3//3
f 33//33 116//116 72//72
f 38//38 143//143 72//72
f 8//8 124//124 30//30
f 64//64 75//75 31//31
f 99//99 64//64 69//69
f 94//94 38//38 116//116
f 38//38 8//8 143//143
f 95//95 124//124 8//8
f 131//131 29//29 47//47
f 105//105 73//73 80//80
f 110//110 23//23 65//65
f 46//46 48//48 24//24
f 108//108 120//120 80//80
f 80//80 84//84 108//108
f 126//126 65//65 59//59
f 115//115 49//49 104//104
f 61//61 83//83 27//27
f 117//117 44//44 85//85
f 118//118 41//41 32//32
f 130//130 44//44 118//118
f 97//97 130//130 59//59
f 130//130 118//118 32//32
f 121//121 135//135 123//123
f 29//29 109//109 71//71
f 37//37 131//131 138//138
f 29//29 71//71 135//135
f 79//79 136//136 75//75
f 136//136 79//79 132//132
f 37//37 116//116 33//33
f 72//72 114//114 62//62
f 124//124 81//81 30//30
f 72//72 116//116 38//38
f 95//95 8//8 38//38
f 93//93 1//1 78//78
f 138//138 48//48 78//78
f 116//116 37//37 138//138
f 47//47 29//29 141//141
f 131//131 109//109 29//29
f 65//65 23//23 97//97
f 22//22 23//23 70//70
f 92//92 63//63 81//81
f 69//69 139//139 99//99
f 99//99 139//139 54//54
f 75//75 99//99 54//54
f 89//89 82//82 74//74
f 22//22 111//111 97//97
f 97//97 44//44 130//130
f 111//111 44//44 97//97
f 71//71 109//109 140//140
f 62//62 140//140 33//33
f 37//37 33//33 140//140
f 143//143 43//43 72//72
f 75//75 64//64 99//99
f 12//12 92//92 81//81
f 82//82 60//60 74//74
f 131//131 37//37 109//109
f 109//109 37//37 140//140
f 2//2 36//36 45//45
f 36//36 137//137 45//45